<svg width="256" height="168" viewBox="0 0 256 168" fill="none" xmlns="http://www.w3.org/2000/svg">
<path d="M34.8844 53.4045L36.196 53.1168L42.1033 55.2304L43.1586 57.0335L48.021 85.2205L48.5964 87.8436L48.9154 92.5576L50.8747 98.2315L58.7107 133.959C55.1463 136.427 53.6172 138.816 54.1235 141.124L58.1048 159.277L57.0809 160.876L55.5341 159.84L54.7368 153.197L51.7451 139.556C50.6031 138.194 49.0712 137.393 47.1493 137.155C47.9164 140.653 47.8628 142.497 46.9884 142.689C46.0142 138.247 43.9108 134.841 40.6782 132.471L13.7199 99.562L8.96801 90.4315C5.73847 75.7066 5.64516 68.0105 8.68807 67.3431L9.9472 67.067L15.843 69.1281L16.9623 70.9722L19.7816 90.0944C21.1559 94.5219 27.1642 102.277 37.8064 113.36L44.9368 124.058L45.5663 123.92L42.7127 110.909L42.2556 105.566L40.0086 98.5802L37.4426 86.8807L32.2069 56.7411L34.8844 53.4045ZM64.4908 37.1232C81.7083 38.4059 91.3603 43.8039 93.4469 53.3174L94.4825 58.0391C95.5641 62.9707 94.3075 67.9386 90.7128 72.9427C89.6046 73.4057 87.7437 75.7018 85.1301 79.8309C78.7446 82.8077 75.6324 84.6633 75.7935 85.3978L86.5486 83.039C91.4781 84.1207 94.1577 85.6408 94.5872 87.5995L90.5163 91.3517L79.0792 93.8601C80.5442 96.3615 83.5812 104.86 88.1902 119.356L88.8722 119.206C103.396 116.9 111.203 118.231 112.293 123.197L111.61 123.347C110.266 125.072 108.841 126.099 107.337 126.429L89.9622 127.435L90.1003 128.065L93.8891 142.08L93.2071 142.23C91.5691 143.286 90.8229 144.146 90.9687 144.81C85.6842 144.283 82.5318 141.694 81.5116 137.042L79.0575 129.112L77.0114 129.561L77.8974 133.6L75.9038 134.038L74.8682 129.316L74.1862 129.466L77.1319 142.896L76.067 144.56L75.2878 144.016L72.3421 130.585C72.1197 129.57 69.9415 129.333 65.8076 129.873L60.8818 126.72L60.7323 126.038L62.7239 122.082L77.1359 120.35L69.1557 96.7514L61.7058 98.3854L59.1682 99.6018C54.162 98.1704 51.5822 97.1049 51.4288 96.4054L51.2792 95.7233C51.8077 92.7847 53.3137 91.0431 55.7969 90.4984L64.506 88.5883L65.5708 86.9251C65.4404 86.3305 61.9973 85.6743 55.2413 84.9566C44.6766 79.5754 38.7766 74.0693 37.5416 68.4382L36.7937 65.028C39.0659 52.3224 42.4929 45.4671 47.0747 44.4622C46.8599 43.4829 52.6653 41.0366 64.4908 37.1232ZM65.2389 46.8019L69.0821 64.3249L67.036 64.7736L63.1928 47.2507L58.6731 48.9568L60.5947 57.7183L58.5486 58.1671L57.0758 51.4517L56.2442 50.9192L56.0946 50.2372C52.3871 51.0503 49.738 56.1037 48.1471 65.3973L48.4348 66.7089C49.5164 71.6405 53.6001 75.2171 60.6859 77.4389L67.7005 77.3301L74.1167 74.4932L74.2662 75.1752C81.3254 68.7514 84.2835 62.9337 83.1405 57.7223L82.2545 53.6826C81.1269 48.5411 76.5282 45.7923 68.4585 45.436L65.2389 46.8019ZM89.5138 49.836L90.3532 49.6519C95.8022 51.0962 99.6281 53.0797 101.831 55.6026C112.044 53.3626 126.255 64.0844 144.463 87.768C150.135 95.5786 153.443 101.635 154.386 105.937L155.272 109.977C149.871 117.943 144.652 122.479 139.616 123.583L137.202 124.113L138.261 128.939L135.795 129.48L134.737 124.653L133.95 124.826L136.608 136.945L135.338 138.928L134.378 138.314L131.709 126.142C130.308 124.433 123.189 122.897 110.353 121.533L102.432 116.507L104.614 110.914L107.028 110.385L116.833 112.469L116.66 111.682C106.103 89.2894 96.6517 73.2715 88.3047 63.6281C83.0417 62.363 79.9343 61.0649 78.9826 59.734L81.1767 54.1939L85.2164 53.3079L86.176 53.9223L87.0154 53.7382L89.5138 49.836ZM104.747 65.1358L104.919 65.9228C109.334 70.6733 118.182 86.5303 131.464 113.494L132.435 114.161L133.275 113.976C138.817 111.001 141.359 108.464 140.898 106.366C134.351 91.8919 124.924 79.8279 112.615 70.1735C109.117 66.7616 106.495 65.0824 104.747 65.1358ZM158.061 33.0972L160.317 32.6024L162.172 33.7902L162.734 32.8421L163.521 32.6695C164.71 32.4087 167.465 34.1874 171.785 38.0055C179.184 41.9913 183.714 45.7634 185.374 49.3217L183.452 51.338L184.681 53.4328L183.947 53.5939L180.837 57.4653C169.546 54.6261 159.433 53.1417 150.497 53.0122L149.923 53.9078L150.418 56.1637C151.431 60.7805 157.562 63.4132 168.812 64.0619C180.215 65.41 186.342 68.0252 187.194 71.9075L182.723 76.8471L181.202 77.1808L163.69 77.0625L162.221 77.3847L162.262 81.3347C164.886 93.2965 169.968 99.5868 177.509 100.206L180.098 101.232C188.178 99.4604 192.261 92.7546 192.347 81.1149L195.618 77.978C199.466 77.1342 202.825 77.9921 205.696 80.5517L206.19 82.8076C205.211 83.0224 204.886 83.8818 205.216 85.3858C204.433 93.1824 200.973 100.302 194.834 106.744L185.866 109.48C178.591 111.076 169.59 108.559 158.861 101.931C156.833 102.376 153.517 95.6983 148.914 81.8979C149.325 74.9158 150.615 71.187 152.784 70.7114C145.371 68.6713 141.064 65.9135 139.862 62.438L138.471 59.6087C136.684 51.4593 137.097 46.0716 139.71 43.4455C143.243 42.6708 149.681 43.11 159.025 44.7631L162.975 44.7216C159.196 42.0313 157.118 39.8292 156.742 38.1154C156.607 34.9924 157.047 33.3197 158.061 33.0972ZM196.646 16.3864L197.905 16.1102L200.774 17.4056L201.277 16.6905C203.622 17.0193 207.438 22.6342 212.725 33.5353C228.207 52.6478 238.535 64.3862 243.708 68.7504L245.155 72.3373C247.233 81.8158 243.895 91.1628 235.138 100.378C218.957 99.3082 210.176 95.6254 208.795 89.3297C204.121 85.7359 201.458 82.4525 200.806 79.4795L200.266 77.0137C197.765 65.6116 198.03 51.11 201.062 33.5089L200.797 32.3022L194.859 20.0226L196.646 16.3864ZM210.094 45.1097C208.038 55.4584 208.276 66.4038 210.808 77.9458L210.934 78.5229C218.145 89.0021 224.128 93.72 228.885 92.6768L229.515 92.5387C234.463 85.5148 236.254 78.89 234.889 72.6643L223.743 60.2071L223.114 60.3452C223.927 64.0526 223.914 65.9984 223.074 66.1825L222.359 65.6795L220.599 57.6525C220.131 55.519 219.233 54.4329 217.904 54.3943L221.966 72.9141L221.024 74.3854L220.257 73.8939L215.665 52.9608L216.157 52.1931C212.92 47.2944 210.899 44.9333 210.094 45.1097Z" fill="#FFF500"/>
</svg>
